<?xml version="1.0" encoding="UTF-8"?>
<svg width="448px" height="448px" viewBox="0 0 448 448" version="1.1" xmlns="http://www.w3.org/2000/svg" xmlns:xlink="http://www.w3.org/1999/xlink">
    <!-- Generator: Sketch 55.2 (78181) - https://sketchapp.com -->
    <title>Path</title>
    <desc>Created with Sketch.</desc>
    <g id="Page-1" stroke="none" stroke-width="1" fill="none" fill-rule="evenodd">
        <g id="fb" fill="#FFFFFF" fill-rule="nonzero">
            <path d="M400,-7.10542736e-15 L48,-7.10542736e-15 C21.490332,-7.10542736e-15 0,21.490332 0,48 L0,400 C0,426.509668 21.490332,448 48,448 L185.25,448 L185.25,295.69 L122.25,295.69 L122.25,224 L185.25,224 L185.25,169.36 C185.25,107.21 222.25,72.88 278.92,72.88 C306.06,72.88 334.44,77.72 334.44,77.72 L334.44,138.72 L303.17,138.72 C272.36,138.72 262.75,157.84 262.75,177.45 L262.75,224 L331.53,224 L320.53,295.69 L262.75,295.69 L262.75,448 L400,448 C426.509668,448 448,426.509668 448,400 L448,48 C448,21.490332 426.509668,-7.10542736e-15 400,-7.10542736e-15 L400,-7.10542736e-15 Z" id="Path"></path>
        </g>
    </g>
</svg>