<?xml version="1.0" encoding="UTF-8"?>
<svg width="388px" height="388px" viewBox="0 0 388 388" version="1.1" xmlns="http://www.w3.org/2000/svg" xmlns:xlink="http://www.w3.org/1999/xlink">
    <!-- Generator: Sketch 52.4 (67378) - http://www.bohemiancoding.com/sketch -->
    <title>Group 10</title>
    <desc>Created with Sketch.</desc>
    <defs>
        <path d="M79,12.2618612 C89.0863105,11.4883812 96.5518649,10.3990999 101.396663,8.99401737 C106.241462,7.58893483 112.869087,4.59092904 121.279541,0 L156.233718,32.1808149 C150.626065,45.7634418 147.822238,57.3635574 147.822238,66.9811615 C147.822238,76.5987656 150.626065,88.7344688 156.233718,103.388271 C158.028987,114.518798 158.455707,122.698045 157.513879,127.926011 C156.572051,133.153977 155.088188,137.091743 153.062292,139.73931 C150.198016,145.530741 143.39537,151.418408 132.654355,157.402313 C125.619274,161.321612 107.264574,163.632539 94.100275,169.16655 C89.4771565,171.110018 84.4437315,175.054502 79,181 C73.5562685,175.054502 68.5228435,171.110018 63.899725,169.16655 C50.7354262,163.632539 32.3807256,161.321612 25.3456446,157.402313 C14.6046299,151.418408 7.8019844,145.530741 4.93770818,139.73931 C2.91181169,137.091743 1.42794934,133.153977 0.486121128,127.926011 C-0.455707086,122.698045 -0.028986907,114.518798 1.76628167,103.388271 C7.37393505,88.7344688 10.1777617,76.5987656 10.1777617,66.9811615 C10.1777617,57.3635574 7.37393505,45.7634418 1.76628167,32.1808149 L36.7204593,0 C45.1309126,4.59092904 51.7585385,7.58893483 56.6033368,8.99401737 C61.4481351,10.3990999 68.9136895,11.4883812 79,12.2618612 Z" id="path-1"></path>
        <polygon id="path-3" points="0.8604 0.089 13.7764 0.089 13.7764 17.3465 0.8604 17.3465"></polygon>
        <polygon id="path-5" points="0.6511 0.3919 19.54 0.3919 19.54 19 0.6511 19"></polygon>
        <polygon id="path-7" points="0 0.0437 31.2835 0.0437 31.2835 31.5987 0 31.5987"></polygon>
        <polygon id="path-9" points="0.0001 0.238 25.2661 0.238 25.2661 20.5123551 0.0001 20.5123551"></polygon>
        <polygon id="path-11" points="0.7483 0.5034 14.8623 0.5034 14.8623 24 0.7483 24"></polygon>
    </defs>
    <g id="Logo" stroke="none" stroke-width="1" fill="none" fill-rule="evenodd">
        <g id="Group-10">
            <g id="Group-9">
                <g id="Group-8">
                    <g id="Group-7">
                        <g id="Group-6">
                            <path d="M194,388 C86.8567585,388 0,301.143241 0,194 C0,86.8567585 86.8567585,0 194,0 C301.143241,0 388,86.8567585 388,194 C388,301.143241 301.143241,388 194,388 Z M195,366 C289.992977,366 367,288.992977 367,194 C367,99.007023 289.992977,22 195,22 C100.007023,22 23,99.007023 23,194 C23,288.992977 100.007023,366 195,366 Z" id="Combined-Shape" fill="#1A1A1A"></path>
                            <path d="M194,356 C105.63444,356 34,284.36556 34,196 C34,107.63444 105.63444,36 194,36 C282.36556,36 354,107.63444 354,196 C354,284.36556 282.36556,356 194,356 Z M194,324 C265.244733,324 323,266.244733 323,195 C323,123.755267 265.244733,66 194,66 C122.755267,66 65,123.755267 65,195 C65,266.244733 122.755267,324 194,324 Z" id="Combined-Shape" fill="#1A1A1A"></path>
                            <circle id="Oval" fill="#1A1A1A" cx="194" cy="194" r="118"></circle>
                            <g id="Group-2" transform="translate(106.000000, 98.000000)">
                                <g id="Group-3">
                                    <path d="M88.4111335,14.1361116 C99.421341,13.275978 107.587682,12.0724043 112.910156,10.5253906 C118.298668,8.9591827 125.670087,5.61738582 135.024414,0.5 L173.901367,36.3710938 C167.664388,51.5112847 164.545898,64.4416233 164.545898,75.1621094 C164.545898,85.8825955 167.664388,99.4099392 173.901367,115.744141 C175.898112,128.151042 176.372721,137.268229 175.325195,143.095703 C174.277669,148.923177 172.627279,153.3125 170.374023,156.263672 C167.1883,162.719225 159.62222,169.28205 147.675781,175.952148 C139.85118,180.320887 119.4366,182.896815 104.794922,189.06543 C99.769553,191.182644 94.30829,195.430338 88.4111328,201.808513 L88.4111328,202.160156 C88.3572337,202.10116 88.3033708,202.04234 88.249544,201.983697 C88.166449,202.073996 88.0832677,202.164717 88,202.255859 L88,201.712807 C82.1028428,195.334635 76.6415798,191.08694 71.6162109,188.969727 C56.9745326,182.801112 36.5599531,180.225184 28.7353516,175.856445 C16.7889132,169.186347 9.22283251,162.623522 6.03710938,156.167969 C3.78385417,153.216797 2.13346354,148.827474 1.0859375,143 C0.0384114583,137.172526 0.513020833,128.055339 2.50976562,115.648437 C8.74674479,99.3142361 11.8652344,85.7868924 11.8652344,75.0664063 C11.8652344,64.3459201 8.74674479,51.4155816 2.50976563,36.2753906 L41.3867188,0.404296875 C50.7410455,5.5216827 58.1124648,8.86347957 63.5009766,10.4296875 C68.8894883,11.9958954 77.1928737,13.2100881 88.4111328,14.0722656 L88.4111328,14.1361167 Z" id="Combined-Shape" fill="#FFFFFF"></path>
                                    <g id="Rectangle" transform="translate(9.000000, 15.000000)">
                                        <mask id="mask-2" fill="white">
                                            <use xlink:href="#path-1"></use>
                                        </mask>
                                        <use id="Mask" fill="#FFFFFF" xlink:href="#path-1"></use>
                                        <rect fill="#EC3733" mask="url(#mask-2)" x="-19" y="84" width="222" height="109"></rect>
                                    </g>
                                </g>
                            </g>
                            <text id="IVEAGH" font-family="OpenSans-Bold, Open Sans" font-size="37" font-weight="bold" fill="#1B1B1B">
                                <tspan x="128" y="177">IVE</tspan>
                                <tspan x="185.017578" y="177" letter-spacing="-1.5">A</tspan>
                                <tspan x="209.04541" y="177">G</tspan>
                                <tspan x="235.837891" y="177" letter-spacing="-2.2">H</tspan>
                            </text>
                            <text id="EST.-1972" font-family="OpenSans-Bold, Open Sans" font-size="10" font-weight="bold" fill="#1B1B1B">
                                <tspan x="172" y="190">EST. 1972</tspan>
                            </text>
                            <g id="Group-4" transform="translate(130.000000, 182.000000)" fill="#EC3733">
                                <polygon id="Star" points="26 6 23.648859 7.23606798 24.097887 4.61803399 22.1957739 2.76393202 24.8244295 2.38196601 26 0 27.1755705 2.38196601 29.8042261 2.76393202 27.902113 4.61803399 28.351141 7.23606798"></polygon>
                                <polygon id="Star" points="15 6 12.648859 7.23606798 13.097887 4.61803399 11.1957739 2.76393202 13.8244295 2.38196601 15 0 16.1755705 2.38196601 18.8042261 2.76393202 16.902113 4.61803399 17.351141 7.23606798"></polygon>
                                <polygon id="Star" points="4 6 1.64885899 7.23606798 2.09788697 4.61803399 0.195773935 2.76393202 2.8244295 2.38196601 4 0 5.1755705 2.38196601 7.80422607 2.76393202 5.90211303 4.61803399 6.35114101 7.23606798"></polygon>
                            </g>
                            <g id="Group-5" transform="translate(232.000000, 182.000000)" fill="#EC3733">
                                <polygon id="Star" points="26.1957739 6 23.8446329 7.23606798 24.2936609 4.61803399 22.3915479 2.76393202 25.0202034 2.38196601 26.1957739 0 27.3713444 2.38196601 30 2.76393202 28.097887 4.61803399 28.5469149 7.23606798"></polygon>
                                <polygon id="Star" points="15.1957739 6 12.8446329 7.23606798 13.2936609 4.61803399 11.3915479 2.76393202 14.0202034 2.38196601 15.1957739 0 16.3713444 2.38196601 19 2.76393202 17.097887 4.61803399 17.5469149 7.23606798"></polygon>
                                <polygon id="Star" points="4.19577393 6 1.84463293 7.23606798 2.2936609 4.61803399 0.39154787 2.76393202 3.02020343 2.38196601 4.19577393 0 5.37134444 2.38196601 8 2.76393202 6.09788697 4.61803399 6.54691494 7.23606798"></polygon>
                            </g>
                            <path d="M163.535156,196 L170.602539,196 L232.180664,261.992188 L243.391548,274.716797 C242.244947,275.895369 241.114431,276.846541 240,277.570312 C238.885569,278.294084 236.218902,278.294084 232,277.570312 L159,196 L163.535156,196 Z" id="Path-3" fill="#FFFFFF"></path>
                            <polygon id="Path-3" fill="#FFFFFF" points="193.661318 197 200.925305 197 262.894531 263.320912 255.808204 268.463867 189 197"></polygon>
                            <path d="M219.535156,193.155273 L226.602539,194 L278.351562,249.776367 L277.209961,249.776367 C274.57803,248.011394 272.726142,247.424154 271.654297,248.014648 C270.582451,248.605143 270.582451,250.636718 271.654297,254.109375 L215,194 L219.535156,193.155273 Z" id="Path-3" fill="#FFFFFF"></path>
                            <g id="Group-35" transform="translate(78.000000, 43.000000)">
                                <path d="M17.2085,58.1231 L3.7145,51.2441 L3.6465,51.3091 C5.2145,52.7491 6.6425,54.1411 7.9295,55.4811 L13.7005,61.4921 L11.8665,63.2531 L0.0005,50.8941 L2.8485,48.1601 L15.7195,54.6951 L15.7705,54.6461 L9.8645,41.4231 L12.7215,38.6791 L24.5875,51.0381 L22.6435,52.9041 L16.7755,46.7931 C16.1855,46.1791 15.4325,45.3641 14.5175,44.3481 C13.6015,43.3321 13.0545,42.7081 12.8765,42.4781 L12.8095,42.5431 L18.9925,56.4111 L17.2085,58.1231 Z" id="Fill-1" fill="#1D1D1B"></path>
                                <path d="M29.8203,38.2163 L25.7583,35.4183 C25.4783,35.2373 25.0553,34.9373 24.4893,34.5193 C23.9243,34.1023 23.5163,33.7913 23.2683,33.5863 C23.6693,34.4843 24.0453,35.5123 24.3963,36.6713 L25.8043,41.1823 L29.8203,38.2163 Z M36.0513,42.5303 L31.8483,39.7193 L26.5793,43.6113 L28.0573,48.4343 L25.6823,50.1883 L20.6183,32.5423 L23.0693,30.7323 L38.4453,40.7613 L36.0513,42.5303 Z" id="Fill-3" fill="#1D1D1B"></path>
                                <path d="M52.0962,32.9341 L49.1132,34.6351 L35.0322,26.9461 L34.9512,26.9931 L35.3792,27.6251 C36.1942,28.8331 36.8992,29.9601 37.4942,31.0061 L41.9052,38.7431 L39.6962,40.0021 L31.2112,25.1181 L34.1642,23.4351 L48.1902,31.0741 L48.2512,31.0391 C48.1482,30.8911 47.7972,30.3381 47.1972,29.3801 C46.5972,28.4231 46.1412,27.6691 45.8272,27.1191 L41.3822,19.3211 L43.6122,18.0501 L52.0962,32.9341 Z" id="Fill-5" fill="#1D1D1B"></path>
                                <path d="M56.354,14.7324 C54.873,15.3614 53.931,16.3804 53.528,17.7914 C53.125,19.2014 53.316,20.8304 54.101,22.6784 C54.922,24.6134 55.951,25.9034 57.189,26.5494 C58.426,27.1954 59.818,27.1904 61.364,26.5334 C62.033,26.2494 62.652,25.9084 63.221,25.5094 C63.791,25.1104 64.369,24.6644 64.956,24.1684 L65.895,26.3794 C64.856,27.3724 63.553,28.2014 61.986,28.8664 C59.677,29.8464 57.607,29.8994 55.777,29.0264 C53.946,28.1524 52.479,26.4144 51.373,23.8114 C50.677,22.1714 50.368,20.6094 50.447,19.1254 C50.525,17.6404 50.993,16.3294 51.852,15.1924 C52.71,14.0564 53.905,13.1624 55.437,12.5124 C57.048,11.8284 58.68,11.5344 60.333,11.6294 L60.317,14.1704 C59.678,14.1454 59.021,14.1624 58.347,14.2234 C57.673,14.2854 57.008,14.4544 56.354,14.7324" id="Fill-7" fill="#1D1D1B"></path>
                                <polygon id="Fill-9" fill="#1D1D1B" points="81.7915 22.0225 79.0945 22.8195 76.9065 15.4135 69.3315 17.6505 71.5195 25.0565 68.8335 25.8505 63.9795 9.4185 66.6665 8.6255 68.6505 15.3465 76.2265 13.1085 74.2405 6.3885 76.9375 5.5915"></polygon>
                                <polygon id="Fill-11" fill="#1D1D1B" points="95.0508 19.5415 85.5148 21.2685 82.4628 4.4095 91.9988 2.6825 92.4208 5.0115 85.6398 6.2395 86.4708 10.8295 92.8248 9.6785 93.2418 11.9845 86.8888 13.1355 87.8468 18.4285 94.6268 17.2005"></polygon>
                                <path d="M107.5488,13.6655 C107.6828,15.1835 107.2398,16.4225 106.2188,17.3835 C105.1988,18.3445 103.7228,18.9105 101.7938,19.0815 C99.8628,19.2525 98.2568,19.0935 96.9748,18.6025 L96.7408,15.9645 C97.5508,16.2615 98.4038,16.4765 99.2978,16.6085 C100.1918,16.7415 101.0158,16.7735 101.7718,16.7075 C102.8758,16.6095 103.6728,16.3265 104.1608,15.8595 C104.6488,15.3935 104.8618,14.8055 104.7988,14.0975 C104.7418,13.4595 104.4528,12.9395 103.9308,12.5395 C103.4088,12.1385 102.3668,11.7015 100.8028,11.2275 C99.1908,10.7355 98.0298,10.1135 97.3198,9.3605 C96.6108,8.6075 96.2048,7.6635 96.1048,6.5265 C95.9778,5.1025 96.3848,3.9375 97.3238,3.0305 C98.2628,2.1235 99.5848,1.5955 101.2888,1.4435 C102.9238,1.2995 104.5818,1.5135 106.2638,2.0855 L105.5778,4.4405 C104.0048,3.9365 102.6218,3.7375 101.4308,3.8435 C100.5278,3.9235 99.8618,4.1805 99.4288,4.6145 C98.9968,5.0495 98.8098,5.5895 98.8668,6.2355 C98.9058,6.6785 99.0328,7.0495 99.2478,7.3485 C99.4628,7.6465 99.7968,7.9175 100.2488,8.1595 C100.7018,8.4015 101.5048,8.7035 102.6588,9.0635 C103.9578,9.4745 104.9188,9.8795 105.5428,10.2785 C106.1668,10.6785 106.6398,11.1505 106.9628,11.6945 C107.2848,12.2385 107.4808,12.8955 107.5488,13.6655" id="Fill-13" fill="#1D1D1B"></path>
                                <g id="Group-17" transform="translate(108.000000, 0.911300)">
                                    <mask id="mask-4" fill="white">
                                        <use xlink:href="#path-3"></use>
                                    </mask>
                                    <g id="Clip-16"></g>
                                    <polygon id="Fill-15" fill="#1D1D1B" mask="url(#mask-4)" points="8.4604 17.3465 5.6604 17.3015 5.8984 2.5725 0.8604 2.4905 0.8994 0.0885 13.7764 0.2975 13.7374 2.6995 8.6994 2.6175"></polygon>
                                </g>
                                <polygon id="Fill-18" fill="#1D1D1B" points="133.251 19.3233 123.601 18.4293 125.18 1.3703 134.831 2.2633 134.612 4.6203 127.751 3.9853 127.321 8.6293 133.751 9.2243 133.534 11.5583 127.105 10.9633 126.609 16.3193 133.47 16.9543"></polygon>
                                <path d="M140.751,11.2764 L142.661,11.6444 C143.942,11.8914 144.916,11.8334 145.584,11.4674 C146.251,11.1034 146.674,10.4534 146.855,9.5174 C147.038,8.5664 146.859,7.8234 146.317,7.2894 C145.776,6.7554 144.88,6.3674 143.629,6.1264 L141.812,5.7764 L140.751,11.2764 Z M140.312,13.5544 L139.016,20.2744 L136.266,19.7444 L139.51,2.9214 L144.262,3.8374 C146.433,4.2564 147.961,4.9724 148.848,5.9864 C149.734,7.0014 150.02,8.3294 149.703,9.9704 C149.299,12.0654 147.922,13.3474 145.572,13.8174 L148.889,22.1784 L145.759,21.5744 L143.027,14.0784 L140.312,13.5544 Z" id="Fill-20" fill="#1D1D1B"></path>
                                <path d="M174.7134,12.7344 L170.9404,23.1584 C170.5094,24.3484 169.8774,25.2974 169.0434,26.0054 C168.2094,26.7124 167.2224,27.1324 166.0824,27.2634 C164.9424,27.3954 163.7004,27.2174 162.3564,26.7314 C160.3584,26.0074 158.9954,24.9164 158.2694,23.4574 C157.5434,21.9974 157.5154,20.3424 158.1854,18.4914 L161.9424,8.1114 L164.5874,9.0684 L160.8974,19.2614 C160.4164,20.5904 160.3694,21.6834 160.7574,22.5384 C161.1464,23.3934 161.9794,24.0524 163.2574,24.5154 C165.7404,25.4134 167.4544,24.5594 168.3984,21.9514 L172.0804,11.7804 L174.7134,12.7344 Z" id="Fill-22" fill="#1D1D1B"></path>
                                <path d="M184.834,36.7334 L181.777,35.1694 L180.496,19.1774 L180.413,19.1344 L180.118,19.8394 C179.553,21.1834 178.997,22.3904 178.449,23.4614 L174.392,31.3904 L172.127,30.2314 L179.932,14.9794 L182.958,16.5274 L184.251,32.4464 L184.313,32.4784 C184.381,32.3114 184.651,31.7144 185.124,30.6884 C185.596,29.6624 185.977,28.8674 186.265,28.3034 L190.354,20.3124 L192.639,21.4824 L184.834,36.7334 Z" id="Fill-24" fill="#1D1D1B"></path>
                                <polygon id="Fill-26" fill="#1D1D1B" points="188.1055 38.8911 197.2385 24.3951 199.6075 25.8881 190.4755 40.3841"></polygon>
                                <polygon id="Fill-28" fill="#1D1D1B" points="198.6606 46.0796 196.4036 44.4216 205.1236 32.5496 201.0626 29.5666 202.4846 27.6306 212.8646 35.2546 211.4426 37.1906 207.3806 34.2076"></polygon>
                                <polygon id="Fill-30" fill="#1D1D1B" points="211.4722 56.8145 204.2182 50.3875 215.5802 37.5645 222.8342 43.9905 221.2642 45.7625 216.1062 41.1935 213.0142 44.6845 217.8472 48.9665 216.2922 50.7205 211.4592 46.4385 207.8922 50.4645 213.0502 55.0335"></polygon>
                                <g id="Group-34" transform="translate(213.000000, 46.911300)">
                                    <mask id="mask-6" fill="white">
                                        <use xlink:href="#path-5"></use>
                                    </mask>
                                    <g id="Clip-33"></g>
                                    <path d="M14.4341,14.2289 C17.4611,11.4609 17.6801,8.6619 15.0921,5.8309 L13.4551,4.0409 L4.2791,12.4309 L5.6231,13.9009 C8.4071,16.9449 11.3441,17.0549 14.4341,14.2289 M16.4961,16.3449 C14.4091,18.2529 12.2831,19.1329 10.1201,18.9839 C7.9561,18.8339 5.8781,17.6699 3.8851,15.4909 L0.6511,11.9529 L13.2951,0.3919 L16.8691,4.3009 C18.7091,6.3129 19.5981,8.3749 19.5371,10.4839 C19.4761,12.5939 18.4621,14.5469 16.4961,16.3449" id="Fill-32" fill="#1D1D1B" mask="url(#mask-6)"></path>
                                </g>
                            </g>
                            <g id="Group-34" transform="translate(195.000000, 91.000000) rotate(1.000000) translate(-195.000000, -91.000000) translate(53.000000, 39.000000)">
                                <g id="Group-3" transform="translate(0.000000, 71.427000)">
                                    <mask id="mask-8" fill="white">
                                        <use xlink:href="#path-7"></use>
                                    </mask>
                                    <g id="Clip-2"></g>
                                    <path d="M24.7905,22.9137 L4.8585,19.6587 L4.7995,19.7677 C7.3755,20.9617 9.7535,22.1477 11.9335,23.3277 L21.7035,28.6167 L20.0895,31.5987 L-0.0005,20.7247 L2.5065,16.0937 L21.5075,19.1647 L21.5525,19.0817 L8.6805,4.6877 L11.1935,0.0437 L31.2835,10.9177 L29.5725,14.0787 L19.6385,8.7007 C18.6395,8.1607 17.3525,7.4307 15.7765,6.5127 C14.2005,5.5947 13.2525,5.0257 12.9345,4.8057 L12.8745,4.9147 L26.3595,20.0147 L24.7905,22.9137 Z" id="Fill-1" fill="#FFFFFF" mask="url(#mask-8)"></path>
                                </g>
                                <path d="M33.3979,64.3553 L27.2039,62.1443 C26.7809,62.0053 26.1339,61.7653 25.2619,61.4203 C24.3899,61.0773 23.7579,60.8153 23.3679,60.6373 C24.1929,61.6563 25.0299,62.8533 25.8799,64.2263 L29.2409,69.5543 L33.3979,64.3553 Z M42.9059,67.7763 L36.5269,65.5963 L31.0719,72.4183 L34.6319,78.1253 L32.1729,81.2003 L19.5949,60.2013 L22.1319,57.0283 L45.3849,64.6763 L42.9059,67.7763 Z" id="Fill-4" fill="#FFFFFF"></path>
                                <path d="M60.6621,50.8211 L57.2651,53.8891 L36.7261,47.9101 L36.6341,47.9941 L37.3721,48.6951 C38.7791,50.0351 40.0201,51.3011 41.0961,52.4911 L49.0551,61.3041 L46.5381,63.5771 L31.2271,46.6231 L34.5901,43.5861 L55.0421,49.5171 L55.1121,49.4541 C54.9351,49.2911 54.3201,48.6711 53.2651,47.5961 C52.2101,46.5211 51.3991,45.6701 50.8341,45.0441 L42.8121,36.1611 L45.3511,33.8681 L60.6621,50.8211 Z" id="Fill-6" fill="#FFFFFF"></path>
                                <path d="M61.7148,26.1224 C59.9148,27.2904 58.9128,28.8474 58.7098,30.7914 C58.5068,32.7364 59.1328,34.8314 60.5898,37.0784 C62.1158,39.4284 63.7658,40.8854 65.5398,41.4474 C67.3138,42.0094 69.1398,41.6814 71.0188,40.4624 C71.8318,39.9354 72.5658,39.3444 73.2208,38.6884 C73.8768,38.0344 74.5328,37.3134 75.1898,36.5274 L76.9328,39.2144 C75.7988,40.7574 74.2788,42.1464 72.3738,43.3834 C69.5688,45.2034 66.8638,45.7504 64.2578,45.0264 C61.6518,44.3024 59.3228,42.3584 57.2708,39.1944 C55.9778,37.2024 55.2118,35.2224 54.9718,33.2544 C54.7318,31.2874 55.0438,29.4574 55.9088,27.7664 C56.7738,26.0754 58.1368,24.6264 59.9978,23.4184 C61.9548,22.1484 64.0308,21.3854 66.2238,21.1294 L66.7888,24.4694 C65.9438,24.5834 65.0858,24.7584 64.2148,24.9944 C63.3438,25.2304 62.5098,25.6064 61.7148,26.1224" id="Fill-8" fill="#FFFFFF"></path>
                                <polygon id="Fill-10" fill="#FFFFFF" points="96.8643 30.7279 93.4383 32.2529 89.2503 22.8469 79.6293 27.1299 83.8183 36.5369 80.4063 38.0559 71.1143 17.1869 74.5263 15.6679 78.3263 24.2039 87.9473 19.9199 84.1473 11.3839 87.5723 9.8589"></polygon>
                                <polygon id="Fill-12" fill="#FFFFFF" points="113.8018 25.9144 101.3488 29.3624 95.2528 7.3474 107.7058 3.8994 108.5488 6.9404 99.6948 9.3924 101.3538 15.3854 109.6508 13.0884 110.4848 16.1004 102.1878 18.3974 104.1008 25.3094 112.9558 22.8574"></polygon>
                                <path d="M129.7026,17.1712 C129.9946,19.1812 129.4966,20.8642 128.2096,22.2192 C126.9226,23.5752 125.0006,24.4392 122.4446,24.8102 C119.8886,25.1822 117.7376,25.0892 115.9936,24.5322 L115.4856,21.0382 C116.5866,21.3732 117.7376,21.5942 118.9376,21.7042 C120.1386,21.8142 121.2386,21.7962 122.2386,21.6512 C123.7016,21.4382 124.7416,21.0032 125.3556,20.3452 C125.9716,19.6872 126.2106,18.8892 126.0736,17.9512 C125.9516,17.1062 125.5276,16.4362 124.8026,15.9422 C124.0776,15.4472 122.6576,14.9422 120.5406,14.4292 C118.3576,13.8942 116.7656,13.1522 115.7646,12.2032 C114.7636,11.2542 114.1536,10.0262 113.9346,8.5212 C113.6606,6.6352 114.1146,5.0532 115.2976,3.7762 C116.4806,2.4992 118.2006,1.6962 120.4576,1.3682 C122.6226,1.0532 124.8466,1.2142 127.1286,1.8512 L126.3906,5.0372 C124.2586,4.4842 122.4036,4.3222 120.8266,4.5512 C119.6306,4.7252 118.7616,5.1172 118.2186,5.7282 C117.6756,6.3382 117.4666,7.0712 117.5906,7.9272 C117.6756,8.5142 117.8726,8.9992 118.1806,9.3802 C118.4886,9.7622 118.9526,10.0972 119.5746,10.3862 C120.1946,10.6742 121.2866,11.0162 122.8486,11.4102 C124.6096,11.8592 125.9196,12.3272 126.7796,12.8122 C127.6396,13.2972 128.3046,13.8902 128.7746,14.5902 C129.2446,15.2912 129.5546,16.1502 129.7026,17.1712" id="Fill-14" fill="#FFFFFF"></path>
                                <polygon id="Fill-16" fill="#FFFFFF" points="141.7227 22.973 137.9887 23.048 137.5967 3.411 130.8787 3.545 130.8147 0.343 147.9827 0 148.0477 3.202 141.3297 3.337"></polygon>
                                <polygon id="Fill-18" fill="#FFFFFF" points="163.7212 24.4647 150.8712 23.1057 153.2732 0.3887 166.1232 1.7477 165.7912 4.8867 156.6552 3.9207 156.0012 10.1047 164.5622 11.0097 164.2342 14.1177 155.6722 13.2127 154.9182 20.3447 164.0542 21.3107"></polygon>
                                <path d="M173.9497,14.118 L176.4687,14.737 C178.1577,15.152 179.4587,15.139 180.3717,14.698 C181.2847,14.258 181.8927,13.42 182.1957,12.186 C182.5037,10.931 182.3157,9.931 181.6307,9.183 C180.9457,8.435 179.7777,7.859 178.1297,7.454 L175.7317,6.865 L173.9497,14.118 Z M173.2117,17.122 L171.0347,25.984 L167.4077,25.093 L172.8587,2.909 L179.1247,4.449 C181.9877,5.152 183.9747,6.209 185.0877,7.619 C186.1997,9.029 186.4907,10.817 185.9587,12.982 C185.2797,15.743 183.3597,17.358 180.1987,17.826 L184.0537,29.182 L179.9267,28.168 L176.7927,18.002 L173.2117,17.122 Z" id="Fill-20" fill="#FFFFFF"></path>
                                <path d="M219.2822,20.0076 L212.7622,33.2726 C212.0172,34.7876 211.0412,35.9526 209.8332,36.7696 C208.6252,37.5856 207.2562,37.9986 205.7262,38.0066 C204.1962,38.0146 202.5752,37.5976 200.8652,36.7576 C198.3222,35.5076 196.6752,33.8626 195.9252,31.8226 C195.1752,29.7826 195.3792,27.5846 196.5372,25.2286 L203.0302,12.0196 L206.3952,13.6736 L200.0202,26.6446 C199.1882,28.3366 198.9672,29.7776 199.3572,30.9676 C199.7472,32.1576 200.7562,33.1526 202.3832,33.9516 C205.5422,35.5046 207.9382,34.6216 209.5692,31.3026 L215.9302,18.3606 L219.2822,20.0076 Z" id="Fill-22" fill="#FFFFFF"></path>
                                <path d="M228.3315,53.9183 L224.6295,51.2253 L226.2555,29.8963 L226.1545,29.8223 L225.6205,30.6893 C224.5985,32.3423 223.6145,33.8173 222.6715,35.1143 L215.6845,44.7163 L212.9425,42.7213 L226.3835,24.2503 L230.0465,26.9163 L228.4515,48.1503 L228.5265,48.2063 C228.6505,48.0003 229.1305,47.2703 229.9655,46.0163 C230.8005,44.7623 231.4665,43.7933 231.9625,43.1113 L239.0045,33.4343 L241.7715,35.4473 L228.3315,53.9183 Z" id="Fill-24" fill="#FFFFFF"></path>
                                <polygon id="Fill-26" fill="#FFFFFF" points="231.8281 57.409 247.4151 40.709 250.1451 43.257 234.5581 59.957"></polygon>
                                <polygon id="Fill-28" fill="#FFFFFF" points="243.5176 69.4378 241.0496 66.6358 255.7866 53.6518 251.3446 48.6108 253.7476 46.4938 265.0996 59.3778 262.6966 61.4958 258.2546 56.4548"></polygon>
                                <polygon id="Fill-30" fill="#FFFFFF" points="256.5259 87.1351 249.2699 76.4421 268.1719 63.6151 275.4279 74.3081 272.8169 76.0801 267.6569 68.4781 262.5119 71.9691 267.3459 79.0931 264.7599 80.8481 259.9259 73.7241 253.9919 77.7511 259.1509 85.3541"></polygon>
                                <path d="M275.2041,98.4168 C280.1281,96.0378 281.4771,92.5448 279.2531,87.9398 L277.8451,85.0278 L262.9191,92.2408 L264.0751,94.6328 C266.4681,99.5848 270.1771,100.8458 275.2041,98.4168 M277.0301,101.9078 C273.6361,103.5488 270.5851,103.8598 267.8781,102.8428 C265.1691,101.8258 262.9601,99.5438 261.2471,95.9998 L258.4661,90.2458 L279.0341,80.3058 L282.1061,86.6648 C283.6881,89.9378 284.0381,92.9098 283.1531,95.5818 C282.2701,98.2538 280.2291,100.3618 277.0301,101.9078" id="Fill-32" fill="#FFFFFF"></path>
                            </g>
                            <g id="Group-31" transform="translate(66.000000, 270.000000)">
                                <g id="Group-3" transform="translate(0.000000, 0.762300)">
                                    <mask id="mask-10" fill="white">
                                        <use xlink:href="#path-9"></use>
                                    </mask>
                                    <g id="Clip-2"></g>
                                    <path d="M12.7031,19.333 C11.0351,20.491 9.3071,20.796 7.5191,20.249 C5.7321,19.702 4.1011,18.367 2.6291,16.244 C1.1561,14.122 0.2791,12.156 0.0001,10.347 L2.9011,8.334 C3.0921,9.469 3.4071,10.598 3.8441,11.721 C4.2811,12.844 4.7881,13.82 5.3641,14.65 C6.2071,15.865 7.0601,16.602 7.9241,16.858 C8.7861,17.115 9.6071,16.974 10.3861,16.434 C11.0881,15.946 11.4981,15.268 11.6181,14.398 C11.7381,13.529 11.5551,12.033 11.0701,9.91 C10.5761,7.718 10.5301,5.962 10.9321,4.643 C11.3351,3.322 12.1611,2.229 13.4111,1.362 C14.9771,0.275 16.5961,-0.023 18.2661,0.465 C19.9371,0.954 21.4231,2.136 22.7241,4.01 C23.9711,5.807 24.8181,7.868 25.2661,10.194 L22.0861,10.956 C21.6301,8.801 20.9471,7.068 20.0381,5.759 C19.3491,4.767 18.6111,4.163 17.8221,3.949 C17.0341,3.736 16.2841,3.876 15.5741,4.369 C15.0861,4.707 14.7401,5.1 14.5361,5.546 C14.3321,5.991 14.2401,6.557 14.2581,7.241 C14.2771,7.926 14.4581,9.055 14.8031,10.629 C15.1851,12.404 15.3511,13.786 15.3011,14.772 C15.2501,15.759 15.0161,16.618 14.5991,17.352 C14.1821,18.084 13.5501,18.745 12.7031,19.333" id="Fill-1" fill="#FEFEFE" mask="url(#mask-10)"></path>
                                </g>
                                <path d="M40.0859,25.6959 L29.2879,35.7899 C28.0549,36.9419 26.7289,37.6849 25.3099,38.0209 C23.8909,38.3559 22.4639,38.2569 21.0309,37.7209 C19.5969,37.1869 18.2289,36.2229 16.9279,34.8309 C14.9929,32.7599 14.0359,30.6389 14.0579,28.4659 C14.0799,26.2929 15.0489,24.3089 16.9669,22.5169 L27.7199,12.4659 L30.2809,15.2059 L19.7219,25.0749 C18.3439,26.3629 17.6279,27.6319 17.5699,28.8829 C17.5129,30.1329 18.1039,31.4219 19.3409,32.7449 C21.7459,35.3169 24.2979,35.3409 26.9999,32.8159 L37.5359,22.9669 L40.0859,25.6959 Z" id="Fill-4" fill="#FEFEFE"></path>
                                <path d="M39.0269,39.2154 L40.5859,40.4444 C42.0909,41.6294 43.4019,42.2374 44.5189,42.2684 C45.6349,42.2994 46.6309,41.7584 47.5079,40.6454 C48.3199,39.6134 48.6099,38.5964 48.3809,37.5934 C48.1499,36.5894 47.3679,35.5624 46.0339,34.5114 L43.9959,32.9064 L39.0269,39.2154 Z M50.6049,42.9254 C49.1289,44.7994 47.3839,45.7514 45.3699,45.7834 C43.3559,45.8154 41.2159,44.9384 38.9489,43.1534 L37.0839,41.6834 L31.7949,48.3974 L28.8609,46.0864 L42.9959,28.1414 L48.1639,32.2114 C50.4059,33.9774 51.7249,35.7584 52.1199,37.5554 C52.5149,39.3514 52.0099,41.1414 50.6049,42.9254 Z" id="Fill-6" fill="#FEFEFE"></path>
                                <path d="M54.7852,50.4684 L56.4992,51.4694 C58.1542,52.4364 59.5362,52.8574 60.6462,52.7344 C61.7562,52.6104 62.6682,51.9364 63.3822,50.7124 C64.0442,49.5794 64.1922,48.5314 63.8252,47.5704 C63.4582,46.6074 62.5412,45.6974 61.0762,44.8414 L58.8362,43.5334 L54.7852,50.4684 Z M66.7642,52.5434 C65.5612,54.6034 63.9652,55.7874 61.9742,56.0974 C59.9842,56.4064 57.7432,55.8334 55.2522,54.3784 L53.2012,53.1804 L48.8902,60.5604 L45.6662,58.6764 L57.1872,38.9514 L62.8682,42.2694 C65.3322,43.7084 66.8842,45.2904 67.5232,47.0154 C68.1632,48.7394 67.9102,50.5824 66.7642,52.5434 Z" id="Fill-8" fill="#FEFEFE"></path>
                                <path d="M70.9336,59.3814 C69.9166,62.0034 69.6756,64.1964 70.2086,65.9624 C70.7426,67.7284 72.0476,69.0134 74.1266,69.8194 C76.1956,70.6214 78.0166,70.5564 79.5896,69.6244 C81.1626,68.6934 82.4636,66.9014 83.4916,64.2494 C84.5046,61.6374 84.7506,59.4534 84.2296,57.6984 C83.7086,55.9434 82.4146,54.6654 80.3456,53.8634 C78.2576,53.0534 76.4196,53.1174 74.8326,54.0554 C73.2466,54.9934 71.9466,56.7694 70.9336,59.3814 M87.1916,65.6844 C85.8486,69.1524 83.9356,71.5104 81.4566,72.7614 C78.9776,74.0124 76.1506,74.0224 72.9746,72.7914 C69.7596,71.5444 67.6606,69.6334 66.6766,67.0564 C65.6916,64.4804 65.8816,61.4334 67.2446,57.9174 C68.6076,54.4024 70.5206,52.0374 72.9856,50.8254 C75.4496,49.6134 78.2886,49.6304 81.5036,50.8764 C84.6696,52.1044 86.7466,54.0094 87.7336,56.5934 C88.7206,59.1774 88.5396,62.2074 87.1916,65.6844" id="Fill-10" fill="#FEFEFE"></path>
                                <path d="M95.5078,66.7457 L98.0458,67.2807 C99.7478,67.6397 101.0478,67.5827 101.9458,67.1117 C102.8428,66.6407 103.4228,65.7837 103.6848,64.5397 C103.9508,63.2757 103.7288,62.2817 103.0188,61.5577 C102.3098,60.8337 101.1238,60.2967 99.4628,59.9457 L97.0468,59.4377 L95.5078,66.7457 Z M94.8708,69.7737 L92.9898,78.7027 L89.3368,77.9337 L94.0428,55.5797 L100.3578,56.9087 C103.2418,57.5167 105.2638,58.5067 106.4228,59.8787 C107.5808,61.2517 107.9308,63.0277 107.4718,65.2097 C106.8858,67.9917 105.0208,69.6697 101.8768,70.2427 L106.1088,81.4647 L101.9498,80.5897 L98.4788,70.5327 L94.8708,69.7737 Z" id="Fill-12" fill="#FEFEFE"></path>
                                <polygon id="Fill-14" fill="#FEFEFE" points="118.5762 82.4049 114.8512 82.1369 116.2562 62.5479 109.5552 62.0669 109.7842 58.8719 126.9112 60.0999 126.6822 63.2959 119.9812 62.8139"></polygon>
                                <g id="Group-18" transform="translate(128.000000, 58.762300)">
                                    <mask id="mask-12" fill="white">
                                        <use xlink:href="#path-11"></use>
                                    </mask>
                                    <g id="Clip-17"></g>
                                    <polygon id="Fill-16" fill="#FEFEFE" mask="url(#mask-12)" points="14.8623 23.3154 1.9583 24.0004 0.7483 1.1884 13.6523 0.5034 13.8193 3.6564 4.6443 4.1424 4.9743 10.3524 13.5713 9.8964 13.7373 13.0164 5.1393 13.4734 5.5193 20.6344 14.6943 20.1484"></polygon>
                                </g>
                                <path d="M150.4204,68.648 L152.9684,68.164 C154.6774,67.839 155.8554,67.287 156.5024,66.506 C157.1494,65.726 157.3544,64.711 157.1174,63.463 C156.8764,62.194 156.2884,61.362 155.3544,60.967 C154.4204,60.572 153.1194,60.533 151.4514,60.849 L149.0264,61.31 L150.4204,68.648 Z M150.9974,71.687 L152.7004,80.652 L149.0314,81.349 L144.7684,58.907 L151.1074,57.702 C154.0034,57.152 156.2514,57.287 157.8494,58.107 C159.4464,58.927 160.4544,60.433 160.8704,62.623 C161.4004,65.417 160.3254,67.683 157.6454,69.422 L165.8714,78.15 L161.6964,78.943 L154.6204,70.999 L150.9974,71.687 Z" id="Fill-19" fill="#FEFEFE"></path>
                                <path d="M180.7598,66.6607 C181.4048,68.5877 181.2138,70.3317 180.1878,71.8937 C179.1608,73.4567 177.4238,74.6477 174.9738,75.4677 C172.5238,76.2867 170.3908,76.5777 168.5758,76.3397 L167.4558,72.9897 C168.5988,73.1247 169.7708,73.1387 170.9708,73.0327 C172.1718,72.9287 173.2508,72.7157 174.2088,72.3947 C175.6118,71.9257 176.5578,71.3127 177.0458,70.5567 C177.5338,69.7997 177.6278,68.9727 177.3268,68.0727 C177.0558,67.2637 176.5208,66.6797 175.7198,66.3207 C174.9188,65.9627 173.4308,65.7187 171.2568,65.5897 C169.0138,65.4497 167.3148,65.0027 166.1608,64.2457 C165.0078,63.4897 164.1898,62.3897 163.7068,60.9477 C163.1018,59.1397 163.2688,57.5027 164.2058,56.0357 C165.1428,54.5687 166.6938,53.4737 168.8568,52.7497 C170.9308,52.0567 173.1478,51.8197 175.5068,52.0417 L175.3468,55.3067 C173.1498,55.1417 171.2958,55.3117 169.7838,55.8167 C168.6378,56.2007 167.8518,56.7407 167.4268,57.4377 C167.0008,58.1357 166.9248,58.8937 167.1988,59.7137 C167.3868,60.2767 167.6668,60.7187 168.0378,61.0397 C168.4088,61.3597 168.9258,61.6077 169.5878,61.7817 C170.2498,61.9557 171.3848,62.0977 172.9928,62.2077 C174.8038,62.3377 176.1768,62.5647 177.1098,62.8897 C178.0418,63.2157 178.8018,63.6807 179.3888,64.2857 C179.9758,64.8907 180.4328,65.6827 180.7598,66.6607" id="Fill-21" fill="#FEFEFE"></path>
                                <path d="M194.6089,44.4264 C192.7419,45.4864 191.6499,46.9804 191.3309,48.9084 C191.0129,50.8384 191.5139,52.9674 192.8349,55.2954 C194.2169,57.7334 195.7769,59.2844 197.5149,59.9514 C199.2519,60.6184 201.0949,60.4004 203.0429,59.2944 C203.8859,58.8174 204.6539,58.2714 205.3469,57.6554 C206.0399,57.0404 206.7379,56.3614 207.4409,55.6144 L209.0209,58.4014 C207.7969,59.8734 206.1969,61.1704 204.2219,62.2904 C201.3139,63.9414 198.5799,64.3264 196.0219,63.4474 C193.4639,62.5704 191.2549,60.4904 189.3939,57.2114 C188.2219,55.1454 187.5749,53.1234 187.4529,51.1454 C187.3309,49.1664 187.7519,47.3594 188.7149,45.7224 C189.6789,44.0854 191.1259,42.7204 193.0559,41.6254 C195.0859,40.4744 197.2019,39.8364 199.4069,39.7104 L199.7729,43.0784 C198.9219,43.1424 198.0549,43.2654 197.1719,43.4484 C196.2879,43.6334 195.4339,43.9584 194.6089,44.4264" id="Fill-23" fill="#FEFEFE"></path>
                                <polygon id="Fill-25" fill="#FEFEFE" points="214.4219 55.4791 200.6279 37.2701 203.6049 35.0151 215.4639 50.6711 223.1739 44.8311 225.1089 47.3841"></polygon>
                                <path d="M225.4653,15.148 L235.9893,25.527 C237.1903,26.712 237.9873,28.007 238.3803,29.411 C238.7733,30.815 238.7313,32.245 238.2553,33.699 C237.7783,35.153 236.8713,36.559 235.5333,37.917 C233.5433,39.933 231.4623,40.975 229.2903,41.042 C227.1173,41.108 225.0963,40.22 223.2283,38.377 L212.7483,28.041 L215.3823,25.371 L225.6723,35.52 C227.0143,36.844 228.3113,37.509 229.5643,37.515 C230.8163,37.522 232.0783,36.879 233.3513,35.588 C235.8233,33.083 235.7433,30.531 233.1113,27.934 L222.8423,17.806 L225.4653,15.148 Z" id="Fill-27" fill="#FEFEFE"></path>
                                <path d="M240.0981,16.4342 L245.9801,20.6462 L248.2901,17.4182 C249.2001,16.1482 249.6431,15.0152 249.6191,14.0182 C249.5961,13.0222 249.0601,12.1472 248.0101,11.3952 C247.0441,10.7052 246.0921,10.5222 245.1541,10.8492 C244.2151,11.1762 243.2631,12.0132 242.2991,13.3602 L240.0981,16.4342 Z M237.6331,14.6692 L239.7251,11.7472 C240.6351,10.4772 241.0981,9.4062 241.1141,8.5342 C241.1301,7.6612 240.6551,6.8792 239.6891,6.1882 C238.8171,5.5632 237.9601,5.4272 237.1191,5.7792 C236.2781,6.1312 235.3661,6.9942 234.3831,8.3662 L232.5001,10.9962 L237.6331,14.6692 Z M227.7851,12.2122 L231.7331,6.6992 C233.5641,4.1412 235.2611,2.5592 236.8221,1.9542 C238.3821,1.3482 239.9681,1.6212 241.5771,2.7732 C242.6611,3.5492 243.3631,4.4752 243.6821,5.5492 C244.0021,6.6232 243.8791,7.7522 243.3141,8.9362 L243.4411,9.0272 C244.6201,7.8992 245.7911,7.2872 246.9551,7.1912 C248.1191,7.0952 249.3201,7.4912 250.5561,8.3752 C252.2241,9.5712 253.1141,11.0882 253.2241,12.9282 C253.3351,14.7692 252.6481,16.7272 251.1611,18.8022 L246.3601,25.5102 L227.7851,12.2122 Z" id="Fill-29" fill="#FEFEFE"></path>
                            </g>
                        </g>
                    </g>
                </g>
            </g>
        </g>
    </g>
</svg>